<?xml version="1.0" standalone="no"?><!DOCTYPE svg PUBLIC "-//W3C//DTD SVG 1.1//EN" "http://www.w3.org/Graphics/SVG/1.1/DTD/svg11.dtd"><svg t="1616765196714" class="icon" viewBox="0 0 1024 1024" version="1.1" xmlns="http://www.w3.org/2000/svg" p-id="9589" xmlns:xlink="http://www.w3.org/1999/xlink" width="200" height="200"><defs><style type="text/css"></style></defs><path d="M816.981333 820.138667H208.682667a49.28 49.28 0 0 1-50.005334-50.346667v-369.493333C158.677333 202.24 316.970667 42.666667 512 42.666667c194.986667 0 354.986667 159.530667 354.986667 357.674666v369.408c0 26.88-23.338667 50.346667-50.005334 50.346667zM258.688 719.36h508.330667V400.341333c0-142.72-115.029333-256.938667-255.018667-256.938666S256.981333 257.621333 256.981333 400.341333v319.018667h1.706667z" p-id="9590"></path><path d="M888.661333 820.138667H135.338667A49.28 49.28 0 0 1 85.333333 769.792c0-28.586667 21.674667-50.432 50.005334-50.432h753.322666c28.330667 0 50.005333 21.845333 50.005334 50.389333a50.346667 50.346667 0 0 1-50.005334 50.346667zM512 981.333333c-48.341333 0-93.312-15.104-133.333333-41.984-23.338667-15.104-28.330667-47.018667-13.312-70.528 14.976-23.466667 46.634667-28.544 69.973333-13.44 45.013333 31.914667 106.666667 31.914667 151.68 0a50.56 50.56 0 0 1 69.973333 13.44c15.018667 23.509333 10.026667 53.76-13.312 70.528-38.357333 28.586667-83.328 41.984-131.669333 41.984z" p-id="9591"></path></svg>