<?xml version="1.0" standalone="no"?><!DOCTYPE svg PUBLIC "-//W3C//DTD SVG 1.1//EN" "http://www.w3.org/Graphics/SVG/1.1/DTD/svg11.dtd"><svg t="1616806611243" class="icon" viewBox="0 0 1024 1024" version="1.1" xmlns="http://www.w3.org/2000/svg" p-id="35088" xmlns:xlink="http://www.w3.org/1999/xlink" width="200" height="200"><defs><style type="text/css"></style></defs><path d="M876.501333 981.333333H147.498667A104.832 104.832 0 0 1 42.666667 876.501333V469.76c0-26.581333 20.352-46.933333 46.933333-46.933333 26.581333 0 46.933333 20.352 46.933333 46.933333v406.741333c0 6.272 4.693333 10.965333 10.965334 10.965334h729.002666a10.666667 10.666667 0 0 0 10.965334-10.965334V469.76c0-26.581333 20.352-46.933333 46.933333-46.933333 26.581333 0 46.933333 20.352 46.933333 46.933333v406.741333C981.333333 934.4 934.4 981.333333 876.501333 981.333333z" p-id="35089"></path><path d="M934.4 516.693333c-10.965333 0-21.888-4.693333-31.274667-12.501333L512 152.192l-391.125333 352a46.805333 46.805333 0 0 1-65.706667-3.157333c-17.194667-20.309333-15.616-50.048 3.157333-67.242667l422.4-378.624a47.573333 47.573333 0 0 1 62.549334 0l422.4 378.624c18.773333 17.194667 20.352 46.933333 3.157333 65.706667-9.386667 10.922667-21.930667 17.194667-34.432 17.194666z" p-id="35090"></path><path d="M627.754667 981.333333H396.245333a46.08 46.08 0 0 1-46.933333-46.933333v-375.466667c0-26.581333 20.309333-46.933333 46.933333-46.933333h229.973334c26.581333 0 46.933333 20.352 46.933333 46.933333v375.466667c1.536 26.581333-20.352 46.933333-45.397333 46.933333z m-184.576-93.866666h136.106666v-281.6h-136.106666v281.6z" p-id="35091"></path></svg>